<svg width="33" height="32" viewBox="0 0 33 32" fill="none" xmlns="http://www.w3.org/2000/svg">
<path d="M14.6775 22.6667C14.6775 23.4 15.278 24 16.0118 24C16.7457 24 17.3462 23.4 17.3462 22.6667C17.3462 21.9333 16.7457 21.3333 16.0118 21.3333C15.278 21.3333 14.6775 21.9333 14.6775 22.6667ZM14.6775 4V9.33333H17.3462V6.77333C21.8695 7.42667 25.3521 11.2933 25.3521 16C25.3521 21.16 21.1757 25.3333 16.0118 25.3333C10.848 25.3333 6.67157 21.16 6.67157 16C6.67157 13.76 7.45883 11.7067 8.7798 10.1067L16.0118 17.3333L17.8932 15.4533L8.81983 6.38667V6.41333C5.89767 8.6 4.00293 12.0667 4.00293 16C4.00293 22.6267 9.36691 28 16.0118 28C22.6434 28 28.0207 22.6267 28.0207 16C28.0207 9.37333 22.6434 4 16.0118 4H14.6775ZM24.0178 16C24.0178 15.2667 23.4173 14.6667 22.6834 14.6667C21.9496 14.6667 21.3491 15.2667 21.3491 16C21.3491 16.7333 21.9496 17.3333 22.6834 17.3333C23.4173 17.3333 24.0178 16.7333 24.0178 16ZM8.0059 16C8.0059 16.7333 8.60634 17.3333 9.34022 17.3333C10.0741 17.3333 10.6745 16.7333 10.6745 16C10.6745 15.2667 10.0741 14.6667 9.34022 14.6667C8.60634 14.6667 8.0059 15.2667 8.0059 16Z" fill="#1591EC"/>
</svg>
