<svg width="32" height="32" viewBox="0 0 32 32" fill="none" xmlns="http://www.w3.org/2000/svg">
<g clip-path="url(#clip0)">
<path d="M14.5274 12.652C13.5126 12.1445 12.32 12.092 11.2904 12.4575C13.4207 12.4575 14.8508 13.4812 15.5693 14.9863C15.9981 15.8812 15.3119 16.8898 14.3885 16.8898C15.3099 16.8898 15.999 17.8966 15.5693 18.7934C14.8331 20.3357 13.2632 21.3361 11.5544 21.3361C11.5266 21.3361 6.83086 20.9053 6.83086 20.9053L3.51056 22.5727C3.04136 22.8073 2.51981 22.5916 2.31581 22.1836L0.0930105 17.7374C-0.115339 17.3066 0.0374605 16.7925 0.44031 16.5563L3.34391 14.9029L5.40001 11.1931C5.71951 8.33081 7.13656 5.70471 9.38716 3.85676C9.95671 3.38436 10.8042 3.46771 11.2627 4.03741C11.735 4.60711 11.6517 5.44076 11.0821 5.91321C10.4569 6.44116 9.90116 7.03866 9.45661 7.69171C10.5402 6.95526 11.7906 6.45511 13.1659 6.28836C13.9022 6.19111 14.5691 6.70516 14.6524 7.44161C14.7497 8.17801 14.2356 8.84496 13.4993 8.92831C12.6935 9.02556 11.9433 9.30346 11.2904 9.69251C12.5961 9.40686 14.226 9.53561 15.6944 10.2483C16.3612 10.5817 16.639 11.3737 16.3056 12.0407C15.9861 12.6937 15.1804 12.9715 14.5274 12.652ZM13.1659 16.1256C12.8603 15.5003 12.249 15.1113 11.5544 15.1113C11.3206 15.1106 11.0891 15.1561 10.873 15.2452C10.6569 15.3344 10.4606 15.4654 10.2953 15.6306C10.13 15.7959 9.99909 15.9923 9.90999 16.2084C9.82088 16.4244 9.77538 16.656 9.77611 16.8898C9.77611 17.9612 10.6665 18.6683 11.5544 18.6683C12.249 18.6683 12.8603 18.2792 13.1659 17.654C13.3882 17.1815 13.8466 16.9037 14.3329 16.8898C13.8466 16.8759 13.3882 16.598 13.1659 16.1256ZM31.907 14.2637C32.1154 14.6945 31.9625 15.2086 31.5597 15.4448L28.6561 17.0982L26.6 20.808C26.2805 23.6703 24.8635 26.2964 22.6129 28.1443C22.0663 28.5999 21.2229 28.5515 20.7374 27.9637C20.2651 27.394 20.3484 26.5603 20.918 26.0879C21.5432 25.5599 22.0989 24.9624 22.5434 24.3094C21.4598 25.0458 20.2095 25.546 18.8341 25.7127C18.3331 25.838 17.4565 25.4306 17.3476 24.5595C17.2504 23.8231 17.7644 23.1561 18.5007 23.0728C19.3065 22.9755 20.0567 22.6976 20.7096 22.3086C19.4039 22.5942 17.774 22.4655 16.3057 21.7528C15.6389 21.4194 15.361 20.6274 15.6945 19.9604C16.0139 19.3074 16.8197 19.0295 17.4727 19.3491C18.4875 19.8565 19.6801 19.909 20.7097 19.5436C18.5794 19.5436 17.1493 18.5198 16.4308 17.0148C16.002 16.1198 16.6882 15.1112 17.6116 15.1112C16.6902 15.1112 16.0011 14.1044 16.4308 13.2077C17.1324 11.7379 18.6327 10.6633 20.5291 10.665L25.1692 11.0957L28.4895 9.42836C28.9599 9.19316 29.4809 9.41066 29.6842 9.81741L31.907 14.2637ZM20.4456 13.3328C19.751 13.3328 19.1397 13.7219 18.8341 14.3471C18.6118 14.8196 18.1534 15.0974 17.6671 15.1113C18.1534 15.1252 18.6118 15.4031 18.8341 15.8755C19.1397 16.5008 19.751 16.8898 20.4456 16.8898C20.6793 16.8905 20.9109 16.845 21.127 16.7558C21.3431 16.6667 21.5394 16.5357 21.7047 16.3704C21.8699 16.2051 22.0009 16.0088 22.09 15.7927C22.1791 15.5766 22.2246 15.3451 22.2239 15.1113C22.2239 14.0399 21.3335 13.3328 20.4456 13.3328Z" fill="#1591EC"/>
</g>
<defs>
<clipPath id="clip0">
<rect width="32" height="32" fill="white"/>
</clipPath>
</defs>
</svg>
